<svg xmlns="http://www.w3.org/2000/svg" version="1.1" xmlns:xlink="http://www.w3.org/1999/xlink" xmlns:svgjs="http://svgjs.dev/svgjs" width="1500" height="1500" viewBox="0 0 1500 1500"><rect width="1500" height="1500" fill="#ffffff"></rect><g transform="matrix(0.6666666666666666,0,0,0.6666666666666666,249.39393939393938,650.4188551773071)"><svg viewBox="0 0 396 78" data-background-color="#6a2055" preserveAspectRatio="xMidYMid meet" height="295" width="1500" xmlns="http://www.w3.org/2000/svg" xmlns:xlink="http://www.w3.org/1999/xlink"><g id="tight-bounds" transform="matrix(1,0,0,1,0.2400000000000091,0.49489472628835074)"><svg viewBox="0 0 395.52 77.0102105474233" height="77.0102105474233" width="395.52"><g><svg viewBox="0 0 395.52 77.0102105474233" height="77.0102105474233" width="395.52"><g><svg viewBox="0 0 395.52 77.0102105474233" height="77.0102105474233" width="395.52"><g id="textblocktransform"><svg viewBox="0 0 395.52 77.0102105474233" height="77.0102105474233" width="395.52" id="textblock"><g><svg viewBox="0 0 395.52 77.0102105474233" height="77.0102105474233" width="395.52"><g transform="matrix(1,0,0,1,0,0)"><svg width="395.52" viewBox="3 -37.7 249.32 48.550000000000004" height="77.0102105474233" data-palette-color="#f4e2de"><path d="M17.05-18.3Q20.4-17.55 22.33-15.63 24.25-13.7 24.25-9.9L24.25-9.9Q24.25-4.9 20.88-2.45 17.5 0 11.7 0L11.7 0 3 0 3-34.55 10.55-34.55Q16.5-34.55 19.75-32.3 23-30.05 23-25.75L23-25.75Q23-22.85 21.38-20.95 19.75-19.05 17.05-18.3L17.05-18.3ZM11.2-29.85L9.35-29.85 9.35-20.3 11.5-20.3Q16.55-20.3 16.55-25.2L16.55-25.2Q16.55-27.65 15.28-28.75 14-29.85 11.2-29.85L11.2-29.85ZM11.75-4.8Q14.65-4.8 16.15-6.03 17.65-7.25 17.65-10.15L17.65-10.15Q17.65-13.05 16.25-14.43 14.85-15.8 11.9-15.8L11.9-15.8 9.35-15.8 9.35-4.8 11.75-4.8ZM33.85 0.75Q31.15 0.75 29.57-0.93 28-2.6 28-5.4L28-5.4 28-37.05 34.15-37.7 34.15-5.65Q34.15-5 34.45-4.6 34.75-4.2 35.35-4.2L35.35-4.2Q35.7-4.2 36.02-4.3 36.35-4.4 36.45-4.4L36.45-4.4 37.65-0.2Q35.95 0.75 33.85 0.75L33.85 0.75ZM50.1-27.15Q55.1-27.15 57.87-23.65 60.65-20.15 60.65-13.25L60.65-13.25Q60.65-6.65 57.85-2.95 55.05 0.75 50.1 0.75L50.1 0.75Q45.15 0.75 42.35-2.88 39.55-6.5 39.55-13.25L39.55-13.25Q39.55-19.95 42.35-23.55 45.15-27.15 50.1-27.15L50.1-27.15ZM50.1-22.5Q47.95-22.5 46.95-20.38 45.95-18.25 45.95-13.25L45.95-13.25Q45.95-8.2 46.95-6.08 47.95-3.95 50.1-3.95L50.1-3.95Q52.25-3.95 53.25-6.08 54.25-8.2 54.25-13.25L54.25-13.25Q54.25-18.3 53.25-20.4 52.25-22.5 50.1-22.5L50.1-22.5ZM83.14-29.85L84.69-25.1Q83.64-24.6 82.17-24.4 80.69-24.2 78.49-24.2L78.49-24.2Q80.59-23.2 81.62-21.53 82.64-19.85 82.64-17.4L82.64-17.4Q82.64-13.4 80.19-10.95 77.74-8.5 73.54-8.5L73.54-8.5Q72.29-8.5 70.99-8.9L70.99-8.9Q70.09-8.15 70.09-6.85L70.09-6.85Q70.09-5.85 70.64-5.35 71.19-4.85 72.69-4.85L72.69-4.85 75.49-4.85Q79.49-4.85 81.84-2.78 84.19-0.7 84.19 2.5L84.19 2.5Q84.19 6.3 81.27 8.58 78.34 10.85 72.94 10.85L72.94 10.85Q67.24 10.85 64.97 8.75 62.69 6.65 62.69 2.6L62.69 2.6 68.14 2.6Q68.14 4.75 69.14 5.65 70.14 6.55 72.99 6.55L72.99 6.55Q75.74 6.55 76.89 5.6 78.04 4.65 78.04 2.9L78.04 2.9Q78.04 1.2 77.09 0.4 76.14-0.4 74.14-0.4L74.14-0.4 72.24-0.4Q68.44-0.4 66.69-1.75 64.94-3.1 64.94-5.45L64.94-5.45Q64.94-6.8 65.67-8.03 66.39-9.25 67.64-10.2L67.64-10.2Q65.59-11.5 64.64-13.3 63.69-15.1 63.69-17.7L63.69-17.7Q63.69-22.05 66.29-24.58 68.89-27.1 73.29-27.1L73.29-27.1Q76.54-27.1 78.67-27.8 80.79-28.5 83.14-29.85L83.14-29.85ZM73.29-23Q71.54-23 70.64-21.75 69.74-20.5 69.74-17.8L69.74-17.8Q69.74-15.25 70.64-13.88 71.54-12.5 73.24-12.5L73.24-12.5Q74.99-12.5 75.84-13.73 76.69-14.95 76.69-17.85L76.69-17.85Q76.69-20.55 75.87-21.78 75.04-23 73.29-23L73.29-23ZM105.39-29.85L106.94-25.1Q105.89-24.6 104.42-24.4 102.94-24.2 100.74-24.2L100.74-24.2Q102.84-23.2 103.87-21.53 104.89-19.85 104.89-17.4L104.89-17.4Q104.89-13.4 102.44-10.95 99.99-8.5 95.79-8.5L95.79-8.5Q94.54-8.5 93.24-8.9L93.24-8.9Q92.34-8.15 92.34-6.85L92.34-6.85Q92.34-5.85 92.89-5.35 93.44-4.85 94.94-4.85L94.94-4.85 97.74-4.85Q101.74-4.85 104.09-2.78 106.44-0.7 106.44 2.5L106.44 2.5Q106.44 6.3 103.52 8.58 100.59 10.85 95.19 10.85L95.19 10.85Q89.49 10.85 87.22 8.75 84.94 6.65 84.94 2.6L84.94 2.6 90.39 2.6Q90.39 4.75 91.39 5.65 92.39 6.55 95.24 6.55L95.24 6.55Q97.99 6.55 99.14 5.6 100.29 4.65 100.29 2.9L100.29 2.9Q100.29 1.2 99.34 0.4 98.39-0.4 96.39-0.4L96.39-0.4 94.49-0.4Q90.69-0.4 88.94-1.75 87.19-3.1 87.19-5.45L87.19-5.45Q87.19-6.8 87.92-8.03 88.64-9.25 89.89-10.2L89.89-10.2Q87.84-11.5 86.89-13.3 85.94-15.1 85.94-17.7L85.94-17.7Q85.94-22.05 88.54-24.58 91.14-27.1 95.54-27.1L95.54-27.1Q98.79-27.1 100.92-27.8 103.04-28.5 105.39-29.85L105.39-29.85ZM95.54-23Q93.79-23 92.89-21.75 91.99-20.5 91.99-17.8L91.99-17.8Q91.99-15.25 92.89-13.88 93.79-12.5 95.49-12.5L95.49-12.5Q97.24-12.5 98.09-13.73 98.94-14.95 98.94-17.85L98.94-17.85Q98.94-20.55 98.12-21.78 97.29-23 95.54-23L95.54-23ZM128.54-13.85Q128.54-13.4 128.39-11.3L128.39-11.3 114.74-11.3Q114.94-7.2 116.16-5.58 117.39-3.95 119.64-3.95L119.64-3.95Q121.19-3.95 122.44-4.48 123.69-5 125.14-6.15L125.14-6.15 127.69-2.65Q124.19 0.75 119.29 0.75L119.29 0.75Q114.09 0.75 111.31-2.85 108.54-6.45 108.54-13L108.54-13Q108.54-19.55 111.19-23.35 113.84-27.15 118.69-27.15L118.69-27.15Q123.34-27.15 125.94-23.78 128.54-20.4 128.54-13.85L128.54-13.85ZM122.54-15.3L122.54-15.65Q122.54-19.4 121.64-21.13 120.74-22.85 118.74-22.85L118.74-22.85Q116.89-22.85 115.91-21.18 114.94-19.5 114.74-15.3L114.74-15.3 122.54-15.3ZM144.49-27.1Q145.64-27.1 146.54-26.75L146.54-26.75 145.54-20.85Q144.54-21.1 143.69-21.1L143.69-21.1Q141.79-21.1 140.69-19.45 139.59-17.8 138.99-14.55L138.99-14.55 138.99 0 132.84 0 132.84-26.45 138.19-26.45 138.64-21.85Q140.49-27.1 144.49-27.1L144.49-27.1ZM161.58-13.2L148.68-13.2 148.68-18.1 161.58-18.1 161.58-13.2ZM175.48-35.25Q178.48-35.25 180.78-34.2 183.08-33.15 185.03-31.05L185.03-31.05 182.08-27.65Q180.53-29.05 179.06-29.75 177.58-30.45 175.93-30.45L175.93-30.45Q174.03-30.45 172.93-29.28 171.83-28.1 171.83-26.2L171.83-26.2Q171.83-24.3 172.98-23.1 174.13-21.9 177.48-20.6L177.48-20.6Q181.78-18.85 183.81-16.5 185.83-14.15 185.83-9.85L185.83-9.85Q185.83-6.9 184.48-4.48 183.13-2.05 180.61-0.65 178.08 0.75 174.73 0.75L174.73 0.75Q171.28 0.75 168.73-0.48 166.18-1.7 164.08-3.95L164.08-3.95 167.28-7.45Q169.08-5.85 170.73-5 172.38-4.15 174.33-4.15L174.33-4.15Q176.63-4.15 177.91-5.58 179.18-7 179.18-9.45L179.18-9.45Q179.18-11.6 178.06-12.98 176.93-14.35 173.88-15.5L173.88-15.5Q169.28-17.35 167.26-19.75 165.23-22.15 165.23-25.75L165.23-25.75Q165.23-28.5 166.56-30.65 167.88-32.8 170.23-34.02 172.58-35.25 175.48-35.25L175.48-35.25ZM202.03-27.15Q205.93-27.15 207.93-23.58 209.93-20 209.93-13.3L209.93-13.3Q209.93-6.8 207.65-3.03 205.38 0.75 201.33 0.75L201.33 0.75Q198.13 0.75 195.98-2.1L195.98-2.1 195.98 10.15 189.83 10.85 189.83-26.45 195.28-26.45 195.53-23.25Q196.83-25.25 198.43-26.2 200.03-27.15 202.03-27.15L202.03-27.15ZM199.68-3.95Q201.58-3.95 202.58-6.13 203.58-8.3 203.58-13.25L203.58-13.25Q203.58-18.45 202.73-20.5 201.88-22.55 200.08-22.55L200.08-22.55Q197.78-22.55 195.98-19.25L195.98-19.25 195.98-6.45Q197.58-3.95 199.68-3.95L199.68-3.95ZM223.93-27.15Q228.93-27.15 231.7-23.65 234.48-20.15 234.48-13.25L234.48-13.25Q234.48-6.65 231.68-2.95 228.88 0.75 223.93 0.75L223.93 0.75Q218.98 0.75 216.18-2.88 213.38-6.5 213.38-13.25L213.38-13.25Q213.38-19.95 216.18-23.55 218.98-27.15 223.93-27.15L223.93-27.15ZM223.93-22.5Q221.78-22.5 220.78-20.38 219.78-18.25 219.78-13.25L219.78-13.25Q219.78-8.2 220.78-6.08 221.78-3.95 223.93-3.95L223.93-3.95Q226.08-3.95 227.08-6.08 228.08-8.2 228.08-13.25L228.08-13.25Q228.08-18.3 227.08-20.4 226.08-22.5 223.93-22.5L223.93-22.5ZM250.17-5L252.32-1.2Q249.87 0.75 246.57 0.75L246.57 0.75Q243.12 0.75 241.32-1.23 239.52-3.2 239.52-6.6L239.52-6.6 239.52-22 236.42-22 236.42-26.45 239.52-26.45 239.52-32.3 245.67-33.05 245.67-26.45 250.67-26.45 250.07-22 245.67-22 245.67-6.6Q245.67-4.2 247.72-4.2L247.72-4.2Q248.37-4.2 248.87-4.38 249.37-4.55 250.17-5L250.17-5Z" opacity="1" transform="matrix(1,0,0,1,0,0)" fill="#000000" class="wordmark-text-0" data-fill-palette-color="primary" id="text-0"></path></svg></g></svg></g></svg></g></svg></g><g></g></svg></g><defs></defs></svg><rect width="395.52" height="77.0102105474233" fill="none" stroke="none" visibility="hidden"></rect></g></svg></g></svg>